<?xml version="1.0" standalone="no"?>
<!DOCTYPE svg PUBLIC "-//W3C//DTD SVG 20010904//EN"
 "http://www.w3.org/TR/2001/REC-SVG-20010904/DTD/svg10.dtd">
<svg version="1.0" xmlns="http://www.w3.org/2000/svg"
 width="640.000000pt" height="150.000000pt" viewBox="0 0 640.000000 150.000000"
 preserveAspectRatio="xMidYMid meet">
<metadata>
Created by potrace 1.15, written by Peter Selinger 2001-2017
</metadata>
<g transform="translate(0.000000,150.000000) scale(0.100000,-0.100000)"
fill="#000000" stroke="none">
<path d="M1112 962 l-52 -47 0 -157 0 -158 55 0 55 0 0 36 c0 28 -8 43 -37 70
-41 39 -39 53 6 29 l31 -16 0 86 c0 52 -4 85 -10 85 -7 0 -7 7 0 20 6 12 10
38 8 60 l-3 38 -53 -46z"/>
<path d="M3843 960 l-53 -49 0 -155 0 -156 60 0 60 0 0 205 c0 113 -3 205 -7
205 -5 -1 -32 -23 -60 -50z"/>
<path d="M732 953 l-52 -48 0 -152 0 -153 55 0 55 0 0 145 c0 132 2 145 18
145 22 -1 56 -28 71 -58 18 -34 4 -77 -35 -111 -29 -26 -34 -37 -34 -76 0 -42
2 -45 25 -45 52 0 132 65 154 123 44 117 -38 258 -159 272 -43 5 -48 3 -98
-42z"/>
<path d="M1684 989 c-7 -12 -6 -13 64 -62 62 -44 104 -48 145 -12 15 13 27 26
27 28 0 2 -17 16 -38 31 -33 22 -48 26 -114 26 -45 0 -80 -5 -84 -11z"/>
<path d="M2028 972 l-31 -29 39 -26 c33 -24 49 -27 116 -27 42 0 79 4 83 9 8
15 -119 101 -149 101 -14 0 -40 -13 -58 -28z"/>
<path d="M2782 988 c-9 -9 -2 -22 31 -55 39 -40 45 -43 97 -43 52 0 57 3 108
51 28 28 52 52 52 55 0 2 -62 4 -138 4 -93 0 -142 -4 -150 -12z"/>
<path d="M3098 959 l-48 -41 0 -159 0 -159 60 0 59 0 3 109 3 109 125 -114
c69 -62 128 -113 133 -114 4 0 7 92 7 205 l0 205 -60 0 -59 0 -3 -75 -3 -74
-80 74 c-44 41 -82 74 -85 74 -3 1 -26 -17 -52 -40z"/>
<path d="M3513 949 c-29 -28 -53 -52 -53 -55 0 -2 25 -4 55 -4 l55 0 0 -145 0
-145 60 0 60 0 1 143 0 142 60 48 c32 27 59 53 59 58 0 5 -54 9 -122 9 l-123
0 -52 -51z"/>
<path d="M4083 868 l-143 -131 0 -73 c0 -41 3 -74 6 -74 5 0 99 84 252 224
l32 30 0 -47 0 -47 -46 0 c-41 0 -51 -5 -97 -50 l-52 -50 98 0 c97 0 97 0 97
-25 0 -24 3 -25 55 -25 l55 0 0 200 0 200 -57 -1 -58 0 -142 -131z"/>
<path d="M4422 952 c-28 -26 -52 -50 -52 -54 0 -5 25 -8 55 -8 l55 0 0 -145 0
-145 60 0 60 0 0 143 0 142 60 50 c33 28 60 53 60 58 0 4 -55 7 -122 7 l-123
-1 -53 -47z"/>
<path d="M4785 981 c-71 -44 -95 -91 -95 -184 0 -66 23 -129 56 -159 70 -62
199 -62 267 0 61 55 78 182 37 267 -31 64 -86 95 -171 95 -45 0 -73 -6 -94
-19z m145 -103 c26 -28 34 -59 27 -105 -8 -50 -33 -73 -77 -73 -53 0 -75 28
-75 95 0 43 5 59 24 79 31 33 73 34 101 4z"/>
<path d="M5172 954 l-52 -46 0 -81 1 -82 52 -32 52 -32 5 51 c4 46 7 49 19 35
7 -10 54 -54 102 -98 l89 -81 0 50 0 51 -79 55 c-47 33 -90 56 -105 56 -19 0
-26 5 -26 19 0 11 -17 32 -38 48 -48 35 -46 61 1 36 18 -9 52 -17 77 -17 43
-1 45 -2 50 -35 4 -28 15 -42 55 -70 28 -20 44 -28 37 -19 -12 15 -11 21 7 44
40 51 30 77 -54 139 -97 71 -121 72 -193 9z"/>
<path d="M1267 942 c-20 -21 -37 -43 -37 -49 0 -7 46 -44 103 -83 86 -60 108
-70 137 -68 35 3 35 3 35 53 l0 50 -82 3 c-75 3 -83 5 -83 22 0 17 7 20 52 20
l52 0 -65 45 c-35 25 -66 45 -69 45 -3 0 -23 -17 -43 -38z"/>
<path d="M2362 943 l-44 -38 54 -37 53 -38 3 31 c3 29 5 30 44 27 32 -2 43 -8
49 -26 7 -18 4 -28 -15 -47 l-25 -25 79 -55 c43 -30 81 -55 84 -55 3 0 6 13 6
29 0 20 -8 35 -27 49 -27 19 -27 21 -10 39 9 11 17 22 17 26 0 7 -192 144
-212 152 -7 3 -33 -12 -56 -32z"/>
<path d="M1618 929 c-22 -16 -28 -29 -28 -58 0 -35 4 -40 68 -84 66 -45 72
-47 140 -47 70 0 72 1 72 25 0 36 -70 85 -122 85 -36 0 -39 2 -36 25 2 18 -6
31 -31 50 -19 14 -35 25 -35 25 -1 0 -13 -10 -28 -21z"/>
<path d="M2712 927 c-14 -15 -22 -36 -22 -58 0 -32 6 -40 65 -82 64 -46 67
-47 140 -47 l75 0 0 55 0 55 -85 0 c-77 0 -85 2 -85 19 0 11 5 21 11 23 9 3
-61 58 -74 58 -2 0 -13 -10 -25 -23z"/>
<path d="M1957 903 c-4 -3 -7 -31 -7 -62 l1 -56 54 -37 c60 -43 65 -44 65 -23
0 12 15 15 72 15 l72 0 -120 85 c-124 88 -127 89 -137 78z"/>
<path d="M2320 783 l1 -68 54 -38 55 -38 0 69 0 69 -42 30 c-72 50 -68 51 -68
-24z"/>
<path d="M1230 753 l0 -78 55 -38 55 -38 0 70 c0 39 5 71 11 73 9 3 -102 88
-116 88 -3 0 -5 -35 -5 -77z"/>
<path d="M2690 717 c0 -70 1 -74 30 -95 26 -20 42 -22 140 -22 l110 0 0 50 0
50 -45 0 -46 0 21 -22 c19 -21 26 -38 14 -38 -3 0 -25 14 -49 30 -24 17 -48
30 -53 30 -6 0 -12 3 -14 8 -1 4 -27 24 -55 45 l-53 37 0 -73z"/>
<path d="M1590 707 c0 -68 2 -76 25 -91 13 -9 40 -16 60 -16 l35 0 0 49 c0 47
-2 51 -47 84 -77 55 -73 56 -73 -26z"/>
</g>
</svg>
